HIERARCHY
ROOT hips
{
  OFFSET 0 11.86390953 0.3628582958
  CHANNELS 6 Xposition Yposition Zposition Yrotation Xrotation Zrotation
  JOINT spine
  {
    OFFSET 0 0.05383551117999996 0
    CHANNELS 3 Yrotation Xrotation Zrotation
    JOINT chest
    {
      OFFSET 0 0.6394558760401424 0
      CHANNELS 3 Yrotation Xrotation Zrotation
      JOINT neck
      {
        OFFSET 0 2.720089088562982 0
        CHANNELS 3 Yrotation Xrotation Zrotation
        JOINT head
        {
          OFFSET 0 0.37880844870545777 0
          CHANNELS 3 Yrotation Xrotation Zrotation
          JOINT rightEye
          {
            OFFSET -0.42867780714 0.7547055649100001 0.7381831347
            CHANNELS 3 Yrotation Xrotation Zrotation
            End Site
            {
              OFFSET -0.42867780714 0.7547055649100001 0.7381831347
            }
          }
          JOINT leftEye
          {
            OFFSET 0.428676479 0.7547055559999993 0.7381844503
            CHANNELS 3 Yrotation Xrotation Zrotation
            End Site
            {
              OFFSET 0.428676479 0.7547055559999993 0.7381844503
            }
          }
          JOINT jaw
          {
            OFFSET -0.18933892286100001 1.5626303011000007 1.137441874206
            CHANNELS 3 Yrotation Xrotation Zrotation
            End Site
            {
              OFFSET -0.18933892286100001 1.5626303011000007 1.137441874206
            }
          }
        }
      }
      JOINT rightShoulder
      {
        OFFSET -0.6795351508 2.0665205 0
        CHANNELS 3 Yrotation Xrotation Zrotation
        JOINT rightUpperArm
        {
          OFFSET -0.7287400483531672 0 0
          CHANNELS 3 Yrotation Xrotation Zrotation
          JOINT rightLowerArm
          {
            OFFSET -1.9872982039174532 0 0
            CHANNELS 3 Yrotation Xrotation Zrotation
            JOINT rightHand
            {
              OFFSET -2.6451847532219275 0 0
              CHANNELS 3 Yrotation Xrotation Zrotation
              JOINT rightLittleProximal
              {
                OFFSET -0.8008804099999995 -0.09592044000000044 -0.26183688629999996
                CHANNELS 3 Yrotation Xrotation Zrotation
                JOINT rightLittleIntermediate
                {
                  OFFSET -0.2473955153999997 -0.02541697026000067 0.002370178700999967
                  CHANNELS 3 Yrotation Xrotation Zrotation
                  JOINT rightLittleDistal
                  {
                    OFFSET -0.163687229200001 -0.015790700860001117 -0.0004274845300000635
                    CHANNELS 3 Yrotation Xrotation Zrotation
                    End Site
                    {
                      OFFSET -0.163687229200001 -0.015790700860001117 -0.0004274845300000635
                    }
                  }
                }
              }
              JOINT rightRingProximal
              {
                OFFSET -0.8393382799999985 -0.06223833561000025 -0.09213143500000005
                CHANNELS 3 Yrotation Xrotation Zrotation
                JOINT rightRingIntermediate
                {
                  OFFSET -0.3284497260000011 -0.03264224524000103 0.009408593183000052
                  CHANNELS 3 Yrotation Xrotation Zrotation
                  JOINT rightRingDistal
                  {
                    OFFSET -0.19447660429999902 -0.021730899850000318 0.003074347969000052
                    CHANNELS 3 Yrotation Xrotation Zrotation
                    End Site
                    {
                      OFFSET -0.19447660429999902 -0.021730899850000318 0.003074347969000052
                    }
                  }
                }
              }
              JOINT rightMiddleProximal
              {
                OFFSET -0.8473005199999989 -0.06735503500000095 0.10541820299999995
                CHANNELS 3 Yrotation Xrotation Zrotation
                JOINT rightMiddleIntermediate
                {
                  OFFSET -0.3450455799999995 -0.02481901642000084 0.019012570390000032
                  CHANNELS 3 Yrotation Xrotation Zrotation
                  JOINT rightMiddleDistal
                  {
                    OFFSET -0.23542332000000088 -0.025003910029999243 0.0075583457949999905
                    CHANNELS 3 Yrotation Xrotation Zrotation
                    End Site
                    {
                      OFFSET -0.23542332000000088 -0.025003910029999243 0.0075583457949999905
                    }
                  }
                }
              }
              JOINT rightIndexProximal
              {
                OFFSET -0.8008568281999987 -0.09897839600000169 0.29462796
                CHANNELS 3 Yrotation Xrotation Zrotation
                JOINT rightIndexIntermediate
                {
                  OFFSET -0.30524754480000016 -0.024634122809999992 0.02743375304999998
                  CHANNELS 3 Yrotation Xrotation Zrotation
                  JOINT rightIndexDistal
                  {
                    OFFSET -0.23067378950000017 -0.016876459159999913 0.008484125099999983
                    CHANNELS 3 Yrotation Xrotation Zrotation
                    End Site
                    {
                      OFFSET -0.23067378950000017 -0.016876459159999913 0.008484125099999983
                    }
                  }
                }
              }
              JOINT rightThumbProximal
              {
                OFFSET -0.25574064999999935 -0.12833189930000155 0.22385698609999993
                CHANNELS 3 Yrotation Xrotation Zrotation
                JOINT rightThumbIntermediate
                {
                  OFFSET -0.22791743260000086 -0.07103586192999978 0.27385039
                  CHANNELS 3 Yrotation Xrotation Zrotation
                  JOINT rightThumbDistal
                  {
                    OFFSET -0.13610267659999975 -0.03369390969999997 0.14246511509999996
                    CHANNELS 3 Yrotation Xrotation Zrotation
                    End Site
                    {
                      OFFSET -0.13610267659999975 -0.03369390969999997 0.14246511509999996
                    }
                  }
                }
              }
            }
          }
        }
      }
      JOINT leftShoulder
      {
        OFFSET 0.6795338396 2.0665205 0
        CHANNELS 3 Yrotation Xrotation Zrotation
        JOINT leftUpperArm
        {
          OFFSET 0.7287383950230443 0 0
          CHANNELS 3 Yrotation Xrotation Zrotation
          JOINT leftLowerArm
          {
            OFFSET 1.9872997282019604 0 0
            CHANNELS 3 Yrotation Xrotation Zrotation
            JOINT leftHand
            {
              OFFSET 2.6451820781302327 0 0
              CHANNELS 3 Yrotation Xrotation Zrotation
              JOINT leftLittleProximal
              {
                OFFSET 0.8008804099999995 -0.09592306899999814 -0.2618342639000001
                CHANNELS 3 Yrotation Xrotation Zrotation
                JOINT leftLittleIntermediate
                {
                  OFFSET 0.2473981400000007 -0.02542352681000093 0.0023609995859999455
                  CHANNELS 3 Yrotation Xrotation Zrotation
                  JOINT leftLittleDistal
                  {
                    OFFSET 0.1636846068000002 -0.015794634789999318 -0.00043272972159996703
                    CHANNELS 3 Yrotation Xrotation Zrotation
                    End Site
                    {
                      OFFSET 0.1636846068000002 -0.015794634789999318 -0.00043272972159996703
                    }
                  }
                }
              }
              JOINT leftRingProximal
              {
                OFFSET 0.8393409199999996 -0.062242267999998324 -0.0921281570000001
                CHANNELS 3 Yrotation Xrotation Zrotation
                JOINT leftRingIntermediate
                {
                  OFFSET 0.3284471036000003 -0.03264224524000103 0.009405970574000042
                  CHANNELS 3 Yrotation Xrotation Zrotation
                  JOINT leftRingDistal
                  {
                    OFFSET 0.1944779099999996 -0.021732211159998904 0.003073036670000001
                    CHANNELS 3 Yrotation Xrotation Zrotation
                    End Site
                    {
                      OFFSET 0.1944779099999996 -0.021732211159998904 0.003073036670000001
                    }
                  }
                }
              }
              JOINT leftMiddleProximal
              {
                OFFSET 0.8473005200000001 -0.06736028199999788 0.1054214809999999
                CHANNELS 3 Yrotation Xrotation Zrotation
                JOINT leftMiddleIntermediate
                {
                  OFFSET 0.3450455799999995 -0.024824261000000014 0.019013225990000007
                  CHANNELS 3 Yrotation Xrotation Zrotation
                  JOINT leftMiddleDistal
                  {
                    OFFSET 0.2354259489999998 -0.025005222000000327 0.0075590014499999705
                    CHANNELS 3 Yrotation Xrotation Zrotation
                    End Site
                    {
                      OFFSET 0.2354259489999998 -0.025005222000000327 0.0075590014499999705
                    }
                  }
                }
              }
              JOINT leftIndexProximal
              {
                OFFSET 0.8008594516999996 -0.09898495199999946 0.29463124239999994
                CHANNELS 3 Yrotation Xrotation Zrotation
                JOINT leftIndexIntermediate
                {
                  OFFSET 0.30524754480000016 -0.024632811499998963 0.02743047472
                  CHANNELS 3 Yrotation Xrotation Zrotation
                  JOINT leftIndexDistal
                  {
                    OFFSET 0.23067378950000017 -0.016876459159999913 0.008481502700000004
                    CHANNELS 3 Yrotation Xrotation Zrotation
                    End Site
                    {
                      OFFSET 0.23067378950000017 -0.016876459159999913 0.008481502700000004
                    }
                  }
                }
              }
              JOINT leftThumbProximal
              {
                OFFSET 0.25574326469999953 -0.12833321050000013 0.22385764169999997
                CHANNELS 3 Yrotation Xrotation Zrotation
                JOINT leftThumbIntermediate
                {
                  OFFSET 0.22804987480000094 -0.07138466829999968 0.273648441
                  CHANNELS 3 Yrotation Xrotation Zrotation
                  JOINT leftThumbDistal
                  {
                    OFFSET 0.13614857189999907 -0.033867001519998885 0.14238119169999996
                    CHANNELS 3 Yrotation Xrotation Zrotation
                    End Site
                    {
                      OFFSET 0.13614857189999907 -0.033867001519998885 0.14238119169999996
                    }
                  }
                }
              }
            }
          }
        }
      }
    }
  }
  JOINT rightUpperLeg
  {
    OFFSET -0.9749898906000001 -1.8495733739999998 0
    CHANNELS 3 Yrotation Xrotation Zrotation
    JOINT rightLowerLeg
    {
      OFFSET 0 -4.1566544686813165 0
      CHANNELS 3 Yrotation Xrotation Zrotation
      JOINT rightFoot
      {
        OFFSET 0.14539718599999998 -4.225553926 -0.3666210900000001
        CHANNELS 3 Yrotation Xrotation Zrotation
        JOINT rightToes
        {
          OFFSET 0.1706738473 -0.9584117400000015 1.0093348617
          CHANNELS 3 Yrotation Xrotation Zrotation
          End Site
          {
            OFFSET 0.1706738473 -0.9584117400000015 1.0093348617
          }
        }
      }
    }
  }
  JOINT leftUpperLeg
  {
    OFFSET 0.9749898906000001 -1.8495733739999998 0
    CHANNELS 3 Yrotation Xrotation Zrotation
    JOINT leftLowerLeg
    {
      OFFSET 0 -4.156653488267941 0
      CHANNELS 3 Yrotation Xrotation Zrotation
      JOINT leftFoot
      {
        OFFSET -0.14537357999999995 -4.225555399999999 -0.36661124279999996
        CHANNELS 3 Yrotation Xrotation Zrotation
        JOINT leftToes
        {
          OFFSET -0.17066467000000002 -0.9584157000000019 1.0093348617
          CHANNELS 3 Yrotation Xrotation Zrotation
          End Site
          {
            OFFSET -0.17066467000000002 -0.9584157000000019 1.0093348617
          }
        }
      }
    }
  }
}
MOTION
Frames: 4
Frame Time: 0.03333333333333333
0.0790797546505928 -0.29824142392089925 0.06850548088550568 1.3305201207042365 -0.6473738743649821 -5.485809029821971 -1.1576287577993867 1.298149240356923 3.059506370484368 1.2667594819566965 1.3395059997405632 11.80861749659527 -0.33324452139660354 1.0450490323520039 -2.1652498354598304 0.4356800177108492 1.5823620636843627 -8.126692391263456 0 0 0 0 0 0 0 0 0 3.403949088892189 4.498575113356358 5.69050657573154 1.5863020219365207 -1.8688982561943477 67.29685304946376 17.733813991702963 0.03516774578019634 -0.22543926157980104 -9.163657662807632 -11.056540345976996 12.036262519090556 -15.919224579853244 5.453999056429489 40.14652421610342 -3.802951938152905 1.3025011915714317 50.136041172270154 -0.4957128853450749 -0.8499662013771612 26.65666124313203 -11.532752373455049 2.898107335735184 31.056195565907913 -3.694335432160731 1.8381121460702117 44.70651269417029 -0.15607414012044168 -0.14592432124830218 22.34614685740519 -8.767427662392398 1.0061100751356122 17.740809390830265 -3.6354784887546105 0.8656186937199389 35.32933470630584 -1.6844930657857746 0.23669100713564117 17.850680895423245 -4.757770599988418 0.3634194602999386 9.813716200915303 -2.6937045571924765 0.39885305177212743 22.51999040089177 -0.22721637383903895 -0.2103806645202259 15.783605761592364 -5.044735738569464 19.29871235266437 -13.98783002307537 -35.99824123793472 2.2578230873247276 2.2118715424736064 -12.055508959686863 2.6513124342249506 0.0817250584419266 -13.862182092575155 3.4962839530107104 -5.723616816054443 2.9849333898014057 3.1503848646383354 -83.46920133388598 -14.510108281628803 0.023568420501901513 0.18544521486208485 4.0313981012790405 -27.5549636580985 -11.319854898794585 16.144685682460384 5.643406688118979 -40.12968188167389 3.7441280143854874 1.5835433901786218 -50.1310236876534 2.921483186662043 0.705992727548109 -25.065365237934827 11.54852951450753 2.9076677812238447 -31.055601699152508 3.6706566311739364 1.8331985050289008 -44.70637818790797 1.9352571065814927 0.6872695282439674 -23.88102866165546 8.709129784250464 0.9875107896581585 -17.740986121017706 3.7279309426922946 0.8879534662070034 -35.3301196246148 1.4965469853829245 0.19818182908357057 -14.21612038007873 4.73417166861009 0.3593615001595417 -9.81338900885117 2.7335252847710234 0.40553895784186067 -22.520423523925043 0.847862740123559 0.04898735333036655 -12.116581716162221 4.932283582849278 19.280590502139404 13.928452366194856 36.11419903792632 2.2885203429712635 -2.1663764717583973 13.03174905045916 2.7936264091462264 0.7423655421596874 -4.714097742789159 -1.0169419885774142 10.916364808411432 -4.791610549486074 11.469861437170126 2.3736137868652123 0.9240263118763079 -9.733323694461136 -8.054306861941663 -0.000005906674730902581 -0.5857220283563614 5.376301370524706e-7 11.37327627695557 -20.304317263490525 12.18411189851239 10.595030898806968 24.17441039520508 6.607156433473828 3.4475313494761237 -3.7021984434553157 -11.299262439580371 0.000006523105421904955 -0.4741186164657067 -0.0000010191540007494737
0.07977049797773361 -0.29805641110351644 0.06855098903179169 1.333642784976848 -0.6446468013606288 -5.483156111425138 -1.1590701032771713 1.2972036569719623 3.0579439463952403 1.2659916699964424 1.337917653945115 11.806893523199841 -0.33058713038172893 1.0435390963081224 -2.167117052457349 0.4487670282860992 1.5678173364779646 -8.14191472297545 0 0 0 0 0 0 0 0 0 3.4075330487872204 4.49856398000034 5.690802020900535 1.572487819413293 -1.8696288348766898 67.2940687527582 17.73323294391999 0.03516351359675431 -0.22542864285028347 -9.166252607622058 -11.058749083097696 12.031688187534069 -15.919100179415063 5.453899568294939 40.14481811601481 -3.8028379273182304 1.3024149381483021 50.134360356182356 -0.4955306152552008 -0.8499615051053682 26.654947448623904 -11.532677228883067 2.8979357211984866 31.054486095504995 -3.6942427083694165 1.8379923426749487 44.704819007498 -0.15592176827193654 -0.14593425973938826 22.344465569996 -8.767409419290695 1.0061085808013475 17.740581997666485 -3.6354618717748406 0.865595799301359 35.32906749158478 -1.6844832515482353 0.23669845103813816 17.850474088915366 -4.757754008435021 0.3634301060042445 9.81352587659632 -2.693690271939359 0.39884515417454663 22.519779187008357 -0.22719028041124076 -0.21038514686208565 15.783355495097732 -5.043025681136216 19.298491629227534 -13.986785749086572 -35.9966295527141 2.257326232309077 2.212229234333629 -12.053874310552736 2.65097803737368 0.08213982276412476 -13.849197330540497 3.498297058324966 -5.723154088480263 2.9878791286354063 3.1336201501573004 -83.4737256781771 -14.49880017597919 0.02354128984096719 0.18527364726533743 4.032115306211771 -27.531491825890228 -11.346579902977654 16.144565450766258 5.643305452165741 -40.12800728546625 3.744003968013019 1.5834145278703973 -50.12928929821232 2.9213728365129734 0.7059168426552208 -25.063675401040413 11.548446981683758 2.9074775717235766 -31.053890450429158 3.670564761874276 1.8330718682766762 -44.704655513339674 1.9351275936786287 0.6872003142389765 -23.879328423283265 8.7091064775863 0.9874806896666825 -17.7407344612009 3.727919865789952 0.8879669147569541 -35.3299111705026 1.4965208473270344 0.19816802188029511 -14.215883489195265 4.734147562174784 0.3593522418694668 -9.813144777895847 2.7335148376825646 0.40552855221490447 -22.520201537556645 0.8478421984369503 0.04898122350015053 -12.116375395372735 4.930568743263726 19.280339050018206 13.927451311329019 36.11257571499715 2.288020700411581 -2.1667284240742433 13.030109637251785 2.793293896074759 0.741928248604545 -4.7175302343739345 -1.0165866560703116 10.911702504625314 -4.801609108485659 11.463981091251352 2.3695075780271253 0.9234643400758916 -9.731267240034809 -8.047901808775439 0.000004698727605633546 -0.5897569614547383 0.0000016800757168186832 11.368533084770782 -20.302106974691995 12.176232674960442 10.594431447533935 24.16956468548218 6.607103632400616 3.452230384795139 -3.700274720959871 -11.2979006909153 -0.000004047105809012459 -0.47243566447222 -0.0000036420992483589692
0.08034750819206238 -0.2979743951123055 0.06855549663305283 1.3397498458097317 -0.6423725250909048 -5.483413212373429 -1.1607107132133465 1.2958163465174082 3.0580098578820087 1.2637069044284306 1.3326491869384005 11.801491418511734 -0.3258984199071209 1.040069106769162 -2.1695983418173825 0.4663133127811619 1.5442270891811414 -8.146653859317833 0 0 0 0 0 0 0 0 0 3.403545036578062 4.503830932822116 5.662262596010602 1.5648978543383305 -1.8775507533521134 67.32438915869878 17.725276387200786 0.03514800893101762 -0.2253534312957951 -9.167473716314177 -11.050470971662365 12.041492206527506 -15.917786664838916 5.452864806907824 40.127940530123844 -3.8017315050172127 1.3013764813252637 50.117343145428066 -0.4938020135302867 -0.8499178511246565 26.637936277642062 -11.531912536746521 2.8961069487289115 31.037594903414504 -3.6933159114180336 1.8368355249206343 44.68773728883193 -0.15440723186679178 -0.1461506520410237 22.327449455327297 -8.76724912771743 1.0059816691295151 17.738343851174236 -3.6352935574746037 0.8654897058203261 35.326848015508205 -1.6842966806378938 0.23662844100190844 17.848246022321614 -4.757557322291448 0.3633897643879934 9.811262630609761 -2.6935072803393503 0.3987707673436506 22.517526738819313 -0.2269896171458529 -0.21038860200060341 15.781138032626531 -5.025834719511252 19.296032935008146 -13.976278331398843 -35.98054064836903 2.252319882793826 2.2156811086263324 -12.037467568987731 2.647325532216417 0.0861335501280918 -13.844495325891753 3.503166036786196 -5.708026564321356 2.98996237789315 3.119839579023798 -83.49623460381956 -14.485413881683723 0.023501332563944953 0.18511895494837005 4.026909529447542 -27.506276938594937 -11.365852370297258 16.143304581929385 5.642193573706789 -40.11110496862319 3.743000131989025 1.5823255509376482 -50.1123277349266 2.9200926854554314 0.7051386223377832 -25.046675941212026 11.54768393301233 2.9056494249706932 -31.037008503118482 3.6696337201480556 1.8319178298883252 -44.687593169423195 1.9338718688833483 0.6864623873460073 -23.862340762553075 8.708937749429676 0.9873634918301276 -17.73850550107352 3.727758158454709 0.8878434762824574 -35.32769644283985 1.4963404763948602 0.19812423903868032 -14.213652066967985 4.7339486056749065 0.35930984583809095 -9.810893311125747 2.733331418417419 0.40545792735742975 -22.518007411960397 0.8476494828904361 0.04895083448333161 -12.114129484949622 4.913376087215337 19.277882437371993 13.916936270760354 36.09646670992124 2.283019798510869 -2.1702063089580954 13.0137163925267 2.78972772067052 0.7378863706938341 -4.7212663608304215 -1.0170267389618755 10.910232735404447 -4.812987775814989 11.460913777163194 2.3661379738414534 0.9230757730968514 -9.730650479422549 -8.042771841249477 -0.0000041999020739100255 -0.5927676877213572 0.0000039285102053601874 11.36412864619535 -20.30435185639955 12.172420269600622 10.594347183095502 24.170096225964222 6.608445678399839 3.4479042573872074 -3.6994585197490624 -11.297624857896505 0.000017085166976697202 -0.47375564352673444 0.0000024568379238950313
0.08084066212177277 -0.2979581826489266 0.0685623437166214 1.3491766040473647 -0.6409963157483408 -5.48666375040692 -1.1633781037402695 1.2935532686127904 3.0583781400063845 1.259980849189738 1.3225155886943962 11.79465029865343 -0.32137119208697695 1.0382040516785436 -2.1704716961152775 0.4817852530524328 1.5184376496804486 -8.137910330614554 0 0 0 0 0 0 0 0 0 3.3947339619272716 4.5143032899228634 5.61089268552639 1.5590312581492476 -1.890291887583421 67.38216078006279 17.714059142389587 0.035096105486669756 -0.22518006319029535 -9.165939049352964 -11.038138619404133 12.061243781456826 -15.915205359498355 5.450827451429314 40.094614377834844 -3.7995608427543592 1.299374933864293 50.08381782877535 -0.49035774826916106 -0.8498231251902127 26.60432483843477 -11.53039556987687 2.8925220759809718 31.00424842548473 -3.6914785173588722 1.8345481586615235 44.65408120479297 -0.15140685806184193 -0.14657444531741634 22.293849842435122 -8.76691926140546 1.0057337163988738 17.73392214643471 -3.6349724842243054 0.8652692469917148 35.32242892152427 -1.6839478736650895 0.2365224921253439 17.843843884145492 -4.757171607666457 0.3633249563289302 9.806857412952645 -2.693151691854988 0.3986292509355088 22.513147955757223 -0.22658040637542864 -0.21040995982597532 15.776727040997745 -4.991896971421851 19.29120973194783 -13.955443405023898 -35.948758656907145 2.2424174565403643 2.2224787847511394 -12.005095251536495 2.6401476879557677 0.09399267511929814 -13.846932511527793 3.511588708702687 -5.673141083897268 2.9881186236619763 3.1132316298240763 -83.54017168127503 -14.475913216920693 0.023481544023492507 0.1850280818819872 4.026244140308507 -27.487868098561336 -11.366514203142131 16.14082718607085 5.640018725013078 -40.07778130815125 3.740984792608896 1.580178559855459 -50.07877775111585 2.917566241396589 0.7035866647426648 -25.013119824428728 11.546176954000247 2.9020440051073395 -31.003647668211478 3.6677861320330627 1.8296347409586278 -44.65392511135649 1.9313614871460172 0.6850007289028769 -23.828760932908267 8.708604513427693 0.9871027319954929 -17.734092994965863 3.727442616400833 0.8876366247883897 -35.323265012754625 1.4959661679247747 0.198012287300379 -14.209238935608875 4.733566721092534 0.3592533089029123 -9.806507186105183 2.732969859699205 0.40530331041622336 -22.513562413621575 0.8472716282240117 0.04889337816403688 -12.109721384715797 4.879450404303005 19.272996456474345 13.896110682372973 36.06466240599874 2.2731438640459385 -2.1770389707616618 12.981316345723615 2.782686222833088 0.7298993579850556 -4.723128828143817 -1.0168446430504012 10.912891173878178 -4.826328136527717 11.458382244518287 2.3615019222308145 0.9227945943446209 -9.730500620625484 -8.037727395654489 0.000002596372975057288 -0.5910057250660617 8.530644211410519e-7 11.358368203532514 -20.30860684314694 12.17144475538153 10.594370685725645 24.173334178816713 6.612240969959415 3.4402906022159696 -3.7003204932722604 -11.298394995569302 -0.000018009336087002927 -0.47851095340608685 -0.000005219131668356903
